<?xml version="1.0" encoding="utf-8"?>
<!-- Generator: Adobe Illustrator 24.0.0, SVG Export Plug-In . SVG Version: 6.00 Build 0)  -->
<svg version="1.1" id="Layer_1" xmlns="http://www.w3.org/2000/svg" xmlns:xlink="http://www.w3.org/1999/xlink" x="0px" y="0px"
	 viewBox="0 0 142 110" style="enable-background:new 0 0 142 110;" xml:space="preserve">
<style type="text/css">
	.st0{clip-path:url(#SVGID_2_);}
	.st1{fill:#5865F2;}
</style>
<g>
	<defs>
		<rect id="SVGID_1_" x="35.5" y="27.5" width="71" height="55"/>
	</defs>
	<clipPath id="SVGID_2_">
		<use xlink:href="#SVGID_1_"  style="overflow:visible;"/>
	</clipPath>
	<g class="st0">
		<path class="st1" d="M95.6,32.4c-4.5-2.1-9.4-3.6-14.5-4.5c-0.1,0-0.2,0-0.2,0.1c-0.6,1.1-1.3,2.6-1.8,3.7
			c-5.5-0.8-10.9-0.8-16.2,0c-0.5-1.2-1.2-2.6-1.8-3.7c0-0.1-0.1-0.1-0.2-0.1c-5.1,0.9-9.9,2.4-14.5,4.5c0,0-0.1,0-0.1,0.1
			c-9.2,13.8-11.7,27.2-10.5,40.4c0,0.1,0,0.1,0.1,0.2c6.1,4.5,12,7.2,17.7,9c0.1,0,0.2,0,0.2-0.1c1.4-1.9,2.6-3.8,3.6-5.9
			c0.1-0.1,0-0.3-0.1-0.3c-1.9-0.7-3.8-1.6-5.5-2.6c-0.1-0.1-0.2-0.3,0-0.4c0.4-0.3,0.7-0.6,1.1-0.9c0.1-0.1,0.2-0.1,0.2,0
			c11.6,5.3,24.2,5.3,35.7,0c0.1,0,0.2,0,0.2,0c0.4,0.3,0.7,0.6,1.1,0.9c0.1,0.1,0.1,0.3,0,0.4c-1.8,1-3.6,1.9-5.5,2.6
			c-0.1,0-0.2,0.2-0.1,0.3c1.1,2.1,2.3,4,3.6,5.9c0.1,0.1,0.2,0.1,0.2,0.1c5.8-1.8,11.7-4.5,17.8-9c0.1,0,0.1-0.1,0.1-0.2
			C107.7,57.6,103.7,44.3,95.6,32.4C95.7,32.4,95.6,32.4,95.6,32.4z M59.2,64.8c-3.5,0-6.4-3.2-6.4-7.2s2.8-7.2,6.4-7.2
			c3.6,0,6.4,3.2,6.4,7.2C65.6,61.6,62.8,64.8,59.2,64.8z M82.8,64.8c-3.5,0-6.4-3.2-6.4-7.2s2.8-7.2,6.4-7.2c3.6,0,6.4,3.2,6.4,7.2
			C89.2,61.6,86.4,64.8,82.8,64.8z"/>
	</g>
</g>
</svg>
